<?xml version="1.0" encoding="utf-8"?>
<!-- Generator: Adobe Illustrator 25.4.1, SVG Export Plug-In . SVG Version: 6.00 Build 0)  -->
<svg version="1.1" id="Warstwa_1" xmlns="http://www.w3.org/2000/svg" xmlns:xlink="http://www.w3.org/1999/xlink" x="0px" y="0px"
	 viewBox="0 0 869 200" style="enable-background:new 0 0 869 200;" xml:space="preserve">
<style type="text/css">
	.st0{enable-background:new    ;}
	.st1{fill:#D30000;}
	.st2{font-family:'OpenSans-Light';}
	.st3{font-size:77.3568px;}
</style>
<g class="st0">
	<path d="M57.5,50c0,8.2-2.6,14.5-7.7,18.9c-5.1,4.4-12.5,6.5-22,6.5h-7v27.2H4.6V26.2h24.4c9.3,0,16.3,2,21.2,6
		C55.1,36.1,57.5,42.1,57.5,50z M20.9,62.2h5.3c5,0,8.7-1,11.2-3c2.5-2,3.7-4.8,3.7-8.6c0-3.8-1-6.6-3.1-8.4
		c-2.1-1.8-5.3-2.7-9.8-2.7h-7.4V62.2z"/>
	<path d="M107.9,102.7l-3.1-8h-0.4c-2.7,3.4-5.5,5.7-8.3,7c-2.8,1.3-6.6,2-11.1,2c-5.6,0-10-1.6-13.3-4.8c-3.2-3.2-4.8-7.8-4.8-13.7
		c0-6.2,2.2-10.8,6.5-13.7c4.3-2.9,10.9-4.6,19.7-4.9l10.2-0.3v-2.6c0-5.9-3-8.9-9.1-8.9c-4.7,0-10.2,1.4-16.5,4.2l-5.3-10.8
		C79,44.7,86.5,43,94.7,43c7.9,0,13.9,1.7,18.1,5.1c4.2,3.4,6.3,8.6,6.3,15.6v39H107.9z M103.1,75.6L97,75.8
		c-4.6,0.1-8.1,1-10.4,2.5c-2.3,1.5-3.4,3.9-3.4,7c0,4.5,2.6,6.8,7.7,6.8c3.7,0,6.7-1.1,8.9-3.2c2.2-2.1,3.3-5,3.3-8.5V75.6z"/>
	<path d="M168.1,43.1c2.2,0,4,0.2,5.4,0.5l-1.2,15c-1.3-0.3-2.9-0.5-4.7-0.5c-5.1,0-9.1,1.3-11.9,3.9c-2.8,2.6-4.3,6.3-4.3,11v29.8
		h-16V44.2h12.1l2.4,9.8h0.8c1.8-3.3,4.3-5.9,7.4-7.9C161.1,44.1,164.5,43.1,168.1,43.1z"/>
	<path d="M207.9,103.7c-18.2,0-27.3-10-27.3-30c0-9.9,2.5-17.5,7.4-22.8c5-5.3,12.1-7.9,21.3-7.9c6.8,0,12.8,1.3,18.2,4l-4.7,12.4
		c-2.5-1-4.9-1.8-7-2.5c-2.2-0.6-4.3-1-6.5-1c-8.3,0-12.5,5.9-12.5,17.7c0,11.4,4.2,17.2,12.5,17.2c3.1,0,5.9-0.4,8.5-1.2
		c2.6-0.8,5.2-2.1,7.9-3.8v13.7c-2.6,1.6-5.2,2.8-7.8,3.4C215.2,103.4,211.9,103.7,207.9,103.7z"/>
	<path d="M276.4,102.7l-3.1-8h-0.4c-2.7,3.4-5.5,5.7-8.3,7c-2.8,1.3-6.6,2-11.1,2c-5.6,0-10-1.6-13.3-4.8c-3.2-3.2-4.8-7.8-4.8-13.7
		c0-6.2,2.2-10.8,6.5-13.7c4.3-2.9,10.9-4.6,19.7-4.9l10.2-0.3v-2.6c0-5.9-3-8.9-9.1-8.9c-4.7,0-10.2,1.4-16.5,4.2l-5.3-10.8
		c6.7-3.5,14.2-5.3,22.4-5.3c7.9,0,13.9,1.7,18.1,5.1c4.2,3.4,6.3,8.6,6.3,15.6v39H276.4z M271.7,75.6l-6.2,0.2
		c-4.6,0.1-8.1,1-10.4,2.5c-2.3,1.5-3.4,3.9-3.4,7c0,4.5,2.6,6.8,7.7,6.8c3.7,0,6.7-1.1,8.9-3.2c2.2-2.1,3.3-5,3.3-8.5V75.6z"/>
	<path d="M336.7,43.1c2.2,0,4,0.2,5.4,0.5l-1.2,15c-1.3-0.3-2.9-0.5-4.7-0.5c-5.1,0-9.1,1.3-11.9,3.9c-2.8,2.6-4.3,6.3-4.3,11v29.8
		h-16V44.2h12.1l2.4,9.8h0.8c1.8-3.3,4.3-5.9,7.4-7.9C329.7,44.1,333,43.1,336.7,43.1z"/>
	<path d="M379.2,103.7c-9.4,0-16.8-2.6-22.1-7.8c-5.3-5.2-8-12.6-8-22.1c0-9.8,2.5-17.4,7.4-22.7c4.9-5.4,11.7-8,20.3-8
		c8.3,0,14.7,2.4,19.3,7.1c4.6,4.7,6.9,11.2,6.9,19.5v7.7h-37.7c0.2,4.5,1.5,8.1,4,10.6c2.5,2.5,6,3.8,10.6,3.8
		c3.5,0,6.9-0.4,10-1.1s6.4-1.9,9.8-3.5v12.4c-2.8,1.4-5.8,2.4-9,3.1C387.6,103.4,383.7,103.7,379.2,103.7z M376.9,54.4
		c-3.4,0-6,1.1-8,3.2s-3,5.2-3.3,9.1h22.4c-0.1-3.9-1.1-7-3.1-9.1S380.3,54.4,376.9,54.4z"/>
	<path d="M484.7,85.3c0,6-2.1,10.6-6.3,13.7c-4.2,3.1-10.4,4.7-18.7,4.7c-4.3,0-7.9-0.3-10.9-0.9c-3-0.6-5.8-1.4-8.4-2.5V87.1
		c3,1.4,6.3,2.6,10,3.5c3.7,0.9,7,1.4,9.8,1.4c5.8,0,8.7-1.7,8.7-5c0-1.3-0.4-2.3-1.2-3.1s-2.1-1.7-4-2.7c-1.9-1-4.4-2.2-7.5-3.5
		c-4.5-1.9-7.8-3.6-9.9-5.2c-2.1-1.6-3.6-3.4-4.6-5.5s-1.4-4.6-1.4-7.7c0-5.2,2-9.2,6-12.1c4-2.8,9.7-4.3,17.1-4.3
		c7,0,13.9,1.5,20.6,4.6l-4.8,11.5c-2.9-1.3-5.7-2.3-8.2-3.1c-2.5-0.8-5.1-1.2-7.8-1.2c-4.7,0-7.1,1.3-7.1,3.8
		c0,1.4,0.8,2.7,2.3,3.7c1.5,1,4.8,2.6,10,4.7c4.6,1.9,7.9,3.6,10.1,5.2c2.1,1.6,3.7,3.5,4.7,5.5C484.2,79.9,484.7,82.4,484.7,85.3z
		"/>
	<path d="M529.3,103.7c-6.9,0-12.3-2.5-16.2-7.5h-0.8c0.6,4.9,0.8,7.7,0.8,8.5v23.7h-16V44.2h13l2.3,7.6h0.7
		c3.7-5.8,9.3-8.7,16.6-8.7c6.9,0,12.3,2.7,16.2,8c3.9,5.3,5.9,12.8,5.9,22.2c0,6.2-0.9,11.7-2.7,16.3s-4.4,8.1-7.8,10.5
		C537.8,102.5,533.9,103.7,529.3,103.7z M524.6,55.8c-3.9,0-6.8,1.2-8.6,3.6c-1.8,2.4-2.8,6.4-2.8,12v1.7c0,6.3,0.9,10.8,2.8,13.5
		c1.9,2.7,4.8,4.1,8.9,4.1c7.2,0,10.7-5.9,10.7-17.7c0-5.8-0.9-10.1-2.6-13C531.1,57.3,528.3,55.8,524.6,55.8z"/>
	<path d="M591.5,103.7c-9.4,0-16.8-2.6-22.1-7.8c-5.3-5.2-8-12.6-8-22.1c0-9.8,2.5-17.4,7.4-22.7c4.9-5.4,11.7-8,20.3-8
		c8.3,0,14.7,2.4,19.3,7.1c4.6,4.7,6.9,11.2,6.9,19.5v7.7h-37.7c0.2,4.5,1.5,8.1,4,10.6c2.5,2.5,6,3.8,10.6,3.8
		c3.5,0,6.9-0.4,10-1.1s6.4-1.9,9.8-3.5v12.4c-2.8,1.4-5.8,2.4-9,3.1C599.9,103.4,596,103.7,591.5,103.7z M589.2,54.4
		c-3.4,0-6,1.1-8,3.2s-3,5.2-3.3,9.1h22.4c-0.1-3.9-1.1-7-3.1-9.1S592.6,54.4,589.2,54.4z"/>
	<path d="M652.1,103.7c-18.2,0-27.3-10-27.3-30c0-9.9,2.5-17.5,7.4-22.8c5-5.3,12.1-7.9,21.3-7.9c6.8,0,12.8,1.3,18.2,4L667,59.4
		c-2.5-1-4.9-1.8-7-2.5c-2.2-0.6-4.3-1-6.5-1c-8.3,0-12.5,5.9-12.5,17.7c0,11.4,4.2,17.2,12.5,17.2c3.1,0,5.9-0.4,8.5-1.2
		c2.6-0.8,5.2-2.1,7.9-3.8v13.7c-2.6,1.6-5.2,2.8-7.8,3.4S656.1,103.7,652.1,103.7z"/>
	<path d="M682.8,29c0-5.2,2.9-7.8,8.7-7.8s8.7,2.6,8.7,7.8c0,2.5-0.7,4.4-2.2,5.8c-1.4,1.4-3.6,2.1-6.5,2.1
		C685.7,36.9,682.8,34.3,682.8,29z M699.4,102.7h-16V44.2h16V102.7z"/>
	<path d="M753.3,102.7l-3.1-8h-0.4c-2.7,3.4-5.5,5.7-8.3,7c-2.8,1.3-6.6,2-11.1,2c-5.6,0-10-1.6-13.3-4.8c-3.2-3.2-4.8-7.8-4.8-13.7
		c0-6.2,2.2-10.8,6.5-13.7c4.3-2.9,10.9-4.6,19.7-4.9l10.2-0.3v-2.6c0-5.9-3-8.9-9.1-8.9c-4.7,0-10.2,1.4-16.5,4.2l-5.3-10.8
		c6.7-3.5,14.2-5.3,22.4-5.3c7.9,0,13.9,1.7,18.1,5.1c4.2,3.4,6.3,8.6,6.3,15.6v39H753.3z M748.6,75.6l-6.2,0.2
		c-4.6,0.1-8.1,1-10.4,2.5c-2.3,1.5-3.4,3.9-3.4,7c0,4.5,2.6,6.8,7.7,6.8c3.7,0,6.7-1.1,8.9-3.2c2.2-2.1,3.3-5,3.3-8.5V75.6z"/>
	<path d="M796.9,102.7h-16V21.2h16V102.7z"/>
	<path d="M850.8,102.7l-3.1-8h-0.4c-2.7,3.4-5.5,5.7-8.3,7c-2.8,1.3-6.6,2-11.1,2c-5.6,0-10-1.6-13.3-4.8c-3.2-3.2-4.8-7.8-4.8-13.7
		c0-6.2,2.2-10.8,6.5-13.7c4.3-2.9,10.9-4.6,19.7-4.9l10.2-0.3v-2.6c0-5.9-3-8.9-9.1-8.9c-4.7,0-10.2,1.4-16.5,4.2l-5.3-10.8
		c6.7-3.5,14.2-5.3,22.4-5.3c7.9,0,13.9,1.7,18.1,5.1c4.2,3.4,6.3,8.6,6.3,15.6v39H850.8z M846.1,75.6l-6.2,0.2
		c-4.6,0.1-8.1,1-10.4,2.5c-2.3,1.5-3.4,3.9-3.4,7c0,4.5,2.6,6.8,7.7,6.8c3.7,0,6.7-1.1,8.9-3.2c2.2-2.1,3.3-5,3.3-8.5V75.6z"/>
</g>
<text transform="matrix(1 0 0 1 -5 181.8291)" class="st1 st2 st3">by Donorauto.md</text>
</svg>
