<?xml version="1.0" encoding="utf-8"?>
<!-- Generator: Adobe Illustrator 25.4.1, SVG Export Plug-In . SVG Version: 6.00 Build 0)  -->
<svg version="1.1" id="Warstwa_1" xmlns="http://www.w3.org/2000/svg" xmlns:xlink="http://www.w3.org/1999/xlink" x="0px" y="0px"
	 viewBox="0 0 173.2 200" style="enable-background:new 0 0 173.2 200;" xml:space="preserve">
<style type="text/css">
	.st0{fill:#C10000;}
</style>
<path class="st0" d="M152.1,65.3c0,20.1-6.3,35.5-18.9,46.2c-12.6,10.7-30.5,16-53.7,16h-17V194H22.9V7h59.7
	c22.7,0,39.9,4.9,51.7,14.6C146.2,31.4,152.1,46,152.1,65.3z M62.6,95h13c12.2,0,21.3-2.4,27.4-7.2c6.1-4.8,9.1-11.8,9.1-21
	c0-9.3-2.5-16.2-7.6-20.6c-5.1-4.4-13-6.7-23.9-6.7h-18V95z"/>
</svg>
